<mxfile host="Electron" agent="Mozilla/5.0 (Windows NT 10.0; Win64; x64) AppleWebKit/537.36 (KHTML, like Gecko) draw.io/24.7.17 Chrome/128.0.6613.36 Electron/32.0.1 Safari/537.36" version="24.7.17">
  <diagram name="Page-1" id="xGbRiLsIGOqaeuDwvGAC">
    <mxGraphModel dx="1050" dy="621" grid="1" gridSize="10" guides="1" tooltips="1" connect="1" arrows="1" fold="1" page="1" pageScale="1" pageWidth="850" pageHeight="1100" math="0" shadow="0">
      <root>
        <mxCell id="0" />
        <mxCell id="1" parent="0" />
        <mxCell id="dLhzZVYRyQLC_icQcrw6-4" value="Subnet&lt;div&gt;&lt;br&gt;&lt;/div&gt;" style="points=[[0,0],[0.25,0],[0.5,0],[0.75,0],[1,0],[1,0.25],[1,0.5],[1,0.75],[1,1],[0.75,1],[0.5,1],[0.25,1],[0,1],[0,0.75],[0,0.5],[0,0.25]];outlineConnect=0;html=1;whiteSpace=wrap;fontSize=12;fontStyle=0;container=1;pointerEvents=0;collapsible=0;recursiveResize=0;shape=mxgraph.aws4.group;grIcon=mxgraph.aws4.group_security_group;grStroke=0;strokeColor=#2D7600;fillColor=#60a917;verticalAlign=top;align=left;spacingLeft=30;fontColor=#ffffff;dashed=0;" vertex="1" parent="1">
          <mxGeometry x="100" y="275" width="520" height="340" as="geometry" />
        </mxCell>
        <mxCell id="dLhzZVYRyQLC_icQcrw6-8" value="ec2" style="outlineConnect=0;dashed=0;verticalLabelPosition=bottom;verticalAlign=top;align=center;html=1;shape=mxgraph.aws3.ec2;fillColor=#F58534;gradientColor=none;" vertex="1" parent="dLhzZVYRyQLC_icQcrw6-4">
          <mxGeometry x="370" y="60" width="110" height="145" as="geometry" />
        </mxCell>
        <mxCell id="dLhzZVYRyQLC_icQcrw6-10" value="ASG" style="text;html=1;align=center;verticalAlign=middle;whiteSpace=wrap;rounded=0;" vertex="1" parent="dLhzZVYRyQLC_icQcrw6-4">
          <mxGeometry x="460" y="40" width="40" height="20" as="geometry" />
        </mxCell>
        <mxCell id="dLhzZVYRyQLC_icQcrw6-17" value="FrontEnd: 3000" style="text;html=1;align=center;verticalAlign=middle;whiteSpace=wrap;rounded=0;" vertex="1" parent="dLhzZVYRyQLC_icQcrw6-4">
          <mxGeometry x="430" y="90" width="40" height="20" as="geometry" />
        </mxCell>
        <mxCell id="dLhzZVYRyQLC_icQcrw6-18" value="Backend:3001" style="text;html=1;align=center;verticalAlign=middle;whiteSpace=wrap;rounded=0;" vertex="1" parent="dLhzZVYRyQLC_icQcrw6-4">
          <mxGeometry x="430" y="140" width="30" height="20" as="geometry" />
        </mxCell>
        <mxCell id="dLhzZVYRyQLC_icQcrw6-19" value="ec2" style="outlineConnect=0;dashed=0;verticalLabelPosition=bottom;verticalAlign=top;align=center;html=1;shape=mxgraph.aws3.ec2;fillColor=#F58534;gradientColor=none;" vertex="1" parent="dLhzZVYRyQLC_icQcrw6-4">
          <mxGeometry x="240" y="60" width="110" height="145" as="geometry" />
        </mxCell>
        <mxCell id="dLhzZVYRyQLC_icQcrw6-20" value="FrontEnd: 3000" style="text;html=1;align=center;verticalAlign=middle;whiteSpace=wrap;rounded=0;" vertex="1" parent="dLhzZVYRyQLC_icQcrw6-4">
          <mxGeometry x="300" y="90" width="40" height="20" as="geometry" />
        </mxCell>
        <mxCell id="dLhzZVYRyQLC_icQcrw6-22" value="Backend:3001" style="text;html=1;align=center;verticalAlign=middle;whiteSpace=wrap;rounded=0;" vertex="1" parent="dLhzZVYRyQLC_icQcrw6-4">
          <mxGeometry x="300" y="130" width="30" height="20" as="geometry" />
        </mxCell>
        <mxCell id="dLhzZVYRyQLC_icQcrw6-5" value="Load Balancer" style="outlineConnect=0;dashed=0;verticalLabelPosition=bottom;verticalAlign=top;align=center;html=1;shape=mxgraph.aws3.application_load_balancer;fillColor=#F58534;gradientColor=none;" vertex="1" parent="dLhzZVYRyQLC_icQcrw6-4">
          <mxGeometry x="60" y="82.5" width="90" height="100" as="geometry" />
        </mxCell>
        <mxCell id="dLhzZVYRyQLC_icQcrw6-9" value="" style="rounded=0;whiteSpace=wrap;html=1;fillStyle=zigzag-line;fillColor=none;dashed=1;" vertex="1" parent="dLhzZVYRyQLC_icQcrw6-4">
          <mxGeometry x="40" y="40" width="470" height="200" as="geometry" />
        </mxCell>
        <mxCell id="dLhzZVYRyQLC_icQcrw6-12" value="VPC" style="sketch=0;outlineConnect=0;gradientColor=none;html=1;whiteSpace=wrap;fontSize=12;fontStyle=0;shape=mxgraph.aws4.group;grIcon=mxgraph.aws4.group_vpc;strokeColor=#B6BABF;fillColor=none;verticalAlign=top;align=left;spacingLeft=30;fontColor=#B6BABF;dashed=0;" vertex="1" parent="1">
          <mxGeometry x="70" y="230" width="610" height="430" as="geometry" />
        </mxCell>
        <mxCell id="dLhzZVYRyQLC_icQcrw6-23" value="CloudFlare" style="ellipse;whiteSpace=wrap;html=1;" vertex="1" parent="1">
          <mxGeometry x="305" y="70" width="120" height="80" as="geometry" />
        </mxCell>
        <mxCell id="dLhzZVYRyQLC_icQcrw6-25" style="edgeStyle=orthogonalEdgeStyle;rounded=0;orthogonalLoop=1;jettySize=auto;html=1;entryX=0.23;entryY=0.302;entryDx=0;entryDy=0;entryPerimeter=0;" edge="1" parent="1" source="dLhzZVYRyQLC_icQcrw6-23" target="dLhzZVYRyQLC_icQcrw6-12">
          <mxGeometry relative="1" as="geometry" />
        </mxCell>
        <mxCell id="dLhzZVYRyQLC_icQcrw6-26" value="CNAME" style="text;html=1;align=center;verticalAlign=middle;whiteSpace=wrap;rounded=0;" vertex="1" parent="1">
          <mxGeometry x="210" y="160" width="60" height="30" as="geometry" />
        </mxCell>
        <mxCell id="dLhzZVYRyQLC_icQcrw6-27" style="edgeStyle=orthogonalEdgeStyle;rounded=0;orthogonalLoop=1;jettySize=auto;html=1;entryX=0.557;entryY=0.302;entryDx=0;entryDy=0;entryPerimeter=0;" edge="1" parent="1" source="dLhzZVYRyQLC_icQcrw6-23" target="dLhzZVYRyQLC_icQcrw6-12">
          <mxGeometry relative="1" as="geometry">
            <Array as="points">
              <mxPoint x="375" y="190" />
              <mxPoint x="410" y="190" />
            </Array>
          </mxGeometry>
        </mxCell>
        <mxCell id="dLhzZVYRyQLC_icQcrw6-28" value="A Record" style="text;html=1;align=center;verticalAlign=middle;whiteSpace=wrap;rounded=0;" vertex="1" parent="1">
          <mxGeometry x="380" y="160" width="60" height="30" as="geometry" />
        </mxCell>
      </root>
    </mxGraphModel>
  </diagram>
</mxfile>
